<svg xmlns="http://www.w3.org/2000/svg" viewBox="0 0 760 210" role="img" aria-labelledby="title desc">
  <title id="title">SahhaDaily logo</title>
  <desc id="desc">SahhaDaily bilingual wordmark with leaf bowl icon.</desc>
  <rect width="760" height="210" fill="#fffefa"/>
  <g transform="translate(26 20)">
    <path d="M19 73C24 28 63 2 107 7c23 2 44 12 59 29" fill="none" stroke="#205b3f" stroke-width="9" stroke-linecap="round"/>
    <path d="M16 154h156c-10 26-37 43-78 43-40 0-68-17-78-43Z" fill="#dcccb7"/>
    <path d="M68 58c42 20 57 56 55 96-37-12-59-44-55-96Z" fill="#78945f"/>
    <path d="M129 94c28-5 52 0 71 15-20 27-48 38-82 33 6-20 10-35 11-48Z" fill="#174f38"/>
    <path d="M78 76c28 20 42 46 43 77" fill="none" stroke="#fffefa" stroke-width="5" stroke-linecap="round"/>
    <circle cx="159" cy="60" r="18" fill="#e07a4f"/>
  </g>
  <line x1="242" y1="34" x2="242" y2="176" stroke="#cfc5b6" stroke-width="3"/>
  <text x="284" y="82" font-family="Georgia, 'Times New Roman', serif" font-size="68" letter-spacing="0" fill="#205b3f">Sahha</text>
  <text x="474" y="82" font-family="Georgia, 'Times New Roman', serif" font-size="68" letter-spacing="0" fill="#d26945">Daily</text>
  <path d="M620 32c14-18 31-21 47-14-7 18-22 27-45 25Z" fill="#78945f"/>
  <text x="286" y="145" font-family="'Noto Naskh Arabic', 'Geeza Pro', 'Arial', sans-serif" font-size="56" letter-spacing="0" fill="#205b3f">صحة</text>
  <text x="448" y="145" font-family="'Noto Naskh Arabic', 'Geeza Pro', 'Arial', sans-serif" font-size="56" letter-spacing="0" fill="#d26945">دايلي</text>
  <line x1="324" y1="179" x2="368" y2="179" stroke="#205b3f" stroke-width="2"/>
  <text x="386" y="185" font-family="Avenir Next, Segoe UI, sans-serif" font-size="16" letter-spacing="8" fill="#24362d">DAILY SUPPORT, BETTER YOU</text>
  <line x1="646" y1="179" x2="690" y2="179" stroke="#205b3f" stroke-width="2"/>
</svg>
