<svg xmlns="http://www.w3.org/2000/svg" viewBox="0 0 120 120" role="img" aria-labelledby="title desc">
  <title id="title">SahhaDaily icon</title>
  <desc id="desc">Leaf bowl icon with orange vitality dot.</desc>
  <rect width="120" height="120" rx="60" fill="#fffefa"/>
  <path d="M20 55C23 26 48 10 77 13c15 2 28 8 38 19" fill="none" stroke="#205b3f" stroke-width="6" stroke-linecap="round"/>
  <path d="M17 92h94c-7 16-24 27-47 27-24 0-41-11-47-27Z" fill="#dcccb7"/>
  <path d="M47 37c26 14 36 34 35 57-24-7-38-27-35-57Z" fill="#78945f"/>
  <path d="M82 58c17-3 32 0 44 9-12 17-29 24-50 21 4-12 6-22 6-30Z" fill="#174f38"/>
  <path d="M53 49c17 13 26 29 27 48" fill="none" stroke="#fffefa" stroke-width="4" stroke-linecap="round"/>
  <circle cx="99" cy="38" r="11" fill="#e07a4f"/>
</svg>
