<svg xmlns="http://www.w3.org/2000/svg" viewBox="0 0 200 200" role="img" aria-label="Dr. Tharwat Mohyeldine">
  <defs><clipPath id="cut2"><circle cx="100" cy="100" r="100"/></clipPath></defs>
  <g clip-path="url(#cut2)">
    <rect width="200" height="200" fill="#F2E8DB"/>
    <circle cx="100" cy="72" r="94" fill="#EFE7DA" opacity="0.6"/>
    <path d="M24 200 C 30 156 58 138 100 138 C 142 138 170 156 176 200 Z" fill="#FBFAF7"/>
    <path d="M70 200 L88 142" stroke="#DCD7CC" stroke-width="2.4" fill="none"/>
    <path d="M130 200 L112 142" stroke="#DCD7CC" stroke-width="2.4" fill="none"/>
    <path d="M86 140 L100 170 L114 140 Z" fill="#DCCCB7"/>
    <path d="M88 126 L88 146 C 88 154 112 154 112 146 L112 126 Z" fill="#F0C49E"/>
    <path d="M88 130 C 94 140 106 140 112 130" fill="#D7A07A" opacity="0.5"/>
    <path d="M88 140 C 80 154 84 172 100 178" stroke="#44544C" stroke-width="3" fill="none" stroke-linecap="round"/>
    <path d="M114 140 C 122 153 118 168 105 175" stroke="#44544C" stroke-width="3" fill="none" stroke-linecap="round"/>
    <circle cx="104" cy="180" r="6" fill="#5E6E64"/><circle cx="104" cy="180" r="2.6" fill="#9AA89E"/>
    <path d="M53 100 C 53 44 73 23 100 23 C 127 23 147 44 147 100 C 147 132 142 150 134 158 L150 200 L120 200 C 128 176 130 150 130 124 L70 124 C 70 150 72 176 80 200 L50 200 L66 158 C 58 150 53 132 53 100 Z" fill="#1F1A1A"/>
    <circle cx="67" cy="98" r="8" fill="#F0C49E"/>
    <circle cx="133" cy="98" r="8" fill="#F0C49E"/>
    <circle cx="67" cy="110" r="4.5" fill="none" stroke="#C9A24B" stroke-width="2.4"/>
    <circle cx="133" cy="110" r="4.5" fill="none" stroke="#C9A24B" stroke-width="2.4"/>
    <ellipse cx="100" cy="96" rx="33" ry="39" fill="#F0C49E"/>
    <circle cx="80" cy="108" r="7" fill="#E69A78" opacity="0.32"/>
    <circle cx="120" cy="108" r="7" fill="#E69A78" opacity="0.32"/>
    <path d="M66 96 C 64 56 80 33 100 33 C 120 33 136 56 134 96 C 128 76 116 66 100 66 C 84 66 72 76 66 96 Z" fill="#1F1A1A"/>
    <path d="M78 86 C 82 83 89 83 92 85" stroke="#1F1A1A" stroke-width="2.4" fill="none" stroke-linecap="round"/>
    <path d="M108 85 C 111 83 118 83 122 86" stroke="#1F1A1A" stroke-width="2.4" fill="none" stroke-linecap="round"/>
    <ellipse cx="85" cy="95" rx="3.2" ry="4" fill="#2A2320"/>
    <ellipse cx="115" cy="95" rx="3.2" ry="4" fill="#2A2320"/>
    <path d="M100 100 L98 108 C 99 110 101 110 102 108" stroke="#D7A07A" stroke-width="2" fill="none" stroke-linecap="round"/>
    <path d="M92 116 C 96 120 104 120 108 116 C 104 114 96 114 92 116 Z" fill="#CE8568"/>
  </g>
</svg>
